<svg width="33" height="18" viewBox="0 0 33 18" fill="none" xmlns="http://www.w3.org/2000/svg">
<path fill-rule="evenodd" clip-rule="evenodd" d="M0.500001 1.98083C0.500001 1.18203 1.24636 0.5 2.21641 0.5L27.5037 0.5C28.4737 0.5 29.2201 1.18203 29.2201 1.98083V2.55081C29.2201 3.00255 29.5229 3.3982 29.959 3.51613L31.0542 3.81231C31.5334 3.96988 32.0714 4.34554 32.0714 4.93808V12.6543C32.0714 13.2468 31.5334 13.6225 31.0542 13.78L31.0152 13.7929L29.9981 14.0244C29.543 14.128 29.2201 14.5327 29.2201 14.9995V15.7335C29.2201 16.5323 28.4737 17.2143 27.5037 17.2143H2.21641C1.24636 17.2143 0.5 16.5323 0.5 15.7335L0.500001 1.98083Z" stroke="#F9F871"/>
</svg>
