<svg width="12" height="12" viewBox="0 0 12 12" fill="none" xmlns="http://www.w3.org/2000/svg">
<path d="M6 12C7.59115 11.9995 9.11698 11.3671 10.2421 10.2418C11.3672 9.11654 11.9995 7.59046 12 5.99907C11.9995 4.40785 11.3671 2.88195 10.242 1.75697C9.11679 0.631988 7.59097 -8.03863e-08 6 0C4.40903 -8.03863e-08 2.88317 0.631988 1.758 1.75697C0.632836 2.88195 0.000505712 4.40785 0 5.99907C0.000505527 7.59046 0.632798 9.11654 1.75791 10.2418C2.88302 11.3671 4.40885 11.9995 6 12ZM3.40048 7.53837L5.61856 5.82164V3.40869C5.61856 3.30751 5.65873 3.21046 5.73026 3.13892C5.8018 3.06737 5.89884 3.0272 6 3.0272C6.10116 3.0272 6.19815 3.06737 6.26969 3.13892C6.34122 3.21046 6.38144 3.30751 6.38144 3.40869V6.00857C6.38144 6.00857 6.38144 6.02385 6.38144 6.03148C6.38144 6.03911 6.38144 6.05818 6.38144 6.07153C6.37915 6.0832 6.37595 6.09467 6.37189 6.10585C6.37299 6.11791 6.37299 6.13007 6.37189 6.14213L6.35662 6.17645L6.33948 6.20886L6.31848 6.23941C6.31124 6.24921 6.30294 6.25815 6.29371 6.2661C6.28516 6.27657 6.27555 6.28613 6.26508 6.29469L6.24981 6.30997L3.883 8.15071C3.80325 8.21246 3.70231 8.24007 3.60223 8.22755C3.50216 8.21504 3.41109 8.16341 3.34898 8.08393C3.31579 8.04507 3.29074 7.99994 3.27532 7.95121C3.2599 7.90248 3.25445 7.85112 3.25926 7.80023C3.26406 7.74935 3.27904 7.69997 3.30331 7.65498C3.32757 7.61 3.3606 7.57033 3.40048 7.53837Z" fill="#F9F871"/>
</svg>
