<svg width="10" height="10" viewBox="0 0 10 10" fill="none" xmlns="http://www.w3.org/2000/svg">
<path d="M2.05215 2.53267C2.56588 1.92091 3.05074 1.36422 3.21309 0.679049C3.21309 0.679049 3.21309 0.679049 3.21309 0.664775C3.04643 0.50453 2.85542 0.36717 2.64598 0.256938C2.62565 0.244078 2.602 0.236288 2.5774 0.234333C2.5528 0.232378 2.52806 0.236326 2.50562 0.245788C2.48319 0.255251 2.46387 0.269903 2.44948 0.288304C2.43509 0.306704 2.42616 0.328222 2.42358 0.350741C2.39955 0.480069 2.36759 0.608059 2.32792 0.734107C2.25834 0.94325 2.15003 1.13985 2.00769 1.31528C1.74082 1.64359 1.41168 1.93927 1.11812 2.25126C0.419809 2.99557 -0.11614 3.91524 0.0217431 4.92668C0.0624294 5.22882 0.16427 5.52135 0.321994 5.78925C0.492185 4.84488 0.90284 3.95063 1.52066 3.17909C1.68968 2.95886 1.87424 2.74271 2.05215 2.53267Z" fill="#896CFE"/>
<path d="M8.27248 2.89972C8.26669 2.89801 8.26045 2.89801 8.25467 2.89972C8.25602 3.03733 8.23732 3.17449 8.19907 3.30756C8.15197 3.43419 8.07618 3.55025 7.97668 3.64811C7.89359 3.73661 7.79141 3.80839 7.67659 3.85893C7.56177 3.90947 7.43679 3.93766 7.3095 3.94175C7.11015 3.93986 6.91796 3.87341 6.76688 3.75414C6.30653 3.4034 6.21533 2.80388 6.0819 2.30224C5.94588 1.79707 5.68418 1.32763 5.31726 0.930686C4.95034 0.533747 4.48815 0.220087 3.96695 0.0142744C3.94539 0.00493162 3.92184 5.81015e-05 3.89799 1.49034e-07C3.85467 -5.49118e-05 3.81298 0.0151487 3.78153 0.0424713C3.75008 0.0697939 3.73125 0.107149 3.72897 0.146822C3.71192 0.356276 3.6815 0.564631 3.63781 0.770813C3.39318 1.8108 2.52587 2.57957 1.87649 3.42176C1.1337 4.39037 0.613285 5.5731 0.74672 6.77622C0.91129 8.26278 2.05882 9.34967 3.46211 9.835C3.2012 9.66152 2.98328 9.43938 2.82268 9.18316C2.66208 8.92695 2.56245 8.64247 2.53031 8.34843C2.48815 7.64041 2.71791 6.94124 3.17967 6.37246C3.54884 5.87694 4.04924 5.42424 4.19157 4.81248C4.21704 4.69124 4.23412 4.56864 4.24271 4.44543C4.24313 4.43065 4.24755 4.4162 4.25553 4.40336C4.2635 4.39052 4.27479 4.37968 4.28843 4.37181C4.30207 4.36394 4.31763 4.35928 4.33371 4.35825C4.34979 4.35722 4.36592 4.35985 4.38062 4.3659C4.68107 4.49073 4.94619 4.67719 5.15557 4.9109C5.36495 5.14461 5.51298 5.41931 5.58819 5.7138C5.66381 6.00744 5.71718 6.36226 5.98183 6.56822C6.34655 6.85167 6.8291 6.54783 6.83133 6.13795V6.09513L6.85136 6.06862C6.90075 6.14049 6.94462 6.21545 6.98259 6.29293V6.30313C7.20329 6.73283 7.3278 7.19874 7.34881 7.67332C7.36982 8.1479 7.28691 8.62153 7.10492 9.06622C7.01956 9.2582 6.90254 9.43701 6.75798 9.59641C6.63345 9.73213 6.48984 9.85213 6.33095 9.95327C7.02313 9.76568 7.64114 9.39806 8.11008 8.89493C8.36142 8.62466 8.56622 8.3207 8.71726 7.99361C8.85087 7.7022 8.95361 7.39969 9.02413 7.09025C9.0949 6.77735 9.13584 6.4594 9.14646 6.13999C9.15791 5.81848 9.14156 5.49664 9.09754 5.1775C9.05446 4.85966 8.98452 4.54536 8.88845 4.23743C8.79465 3.93398 8.67419 3.63801 8.5282 3.35242C8.48817 3.27697 8.44591 3.19745 8.40365 3.122L8.3347 3.00168C8.32233 2.96393 8.30112 2.92912 8.27248 2.89972Z" fill="#896CFE"/>
</svg>
