<svg width="17" height="18" viewBox="0 0 17 18" fill="none" xmlns="http://www.w3.org/2000/svg">
<path d="M0.061568 11.9401L1.79832 15.0384C1.85777 15.1437 1.95522 15.2206 2.06953 15.2523C2.18383 15.2839 2.30567 15.2678 2.40847 15.2074L4.69019 13.8661C5.17963 14.2716 5.7278 14.5956 6.31476 14.8265V17.5386C6.31476 17.6605 6.36159 17.7775 6.44514 17.8639C6.5287 17.9504 6.64216 17.9993 6.76066 18H10.2393C10.298 18 10.3562 17.9881 10.4105 17.9648C10.4648 17.9416 10.5141 17.9076 10.5555 17.8647C10.597 17.8218 10.6298 17.7709 10.6521 17.7149C10.6743 17.6589 10.6855 17.5991 10.6852 17.5386V14.8265C11.2721 14.5956 11.8203 14.2716 12.3097 13.8661L14.5914 15.2074C14.6943 15.2678 14.8161 15.2839 14.9304 15.2523C15.0447 15.2206 15.1423 15.1437 15.2017 15.0384L16.941 11.9401C16.9997 11.8343 17.0153 11.709 16.9846 11.5914C16.9538 11.4738 16.8791 11.3735 16.7768 11.3123L14.4924 9.95501C14.5424 9.63653 14.5686 9.31454 14.5707 8.99194C14.5685 8.67024 14.5423 8.34916 14.4924 8.03157L16.7768 6.67424C16.8791 6.61309 16.9538 6.51277 16.9846 6.39518C17.0153 6.27759 16.9997 6.15226 16.941 6.0465L15.2017 2.94813C15.1423 2.84283 15.0447 2.76596 14.9304 2.7343C14.8161 2.70264 14.6943 2.7188 14.5914 2.77916L12.3097 4.1338C11.8197 3.7285 11.2717 3.40368 10.6852 3.1708V0.458707C10.6852 0.337048 10.6383 0.220416 10.5546 0.13439C10.471 0.0483637 10.3575 0 10.2393 0H6.76066C6.64261 0.000704031 6.52964 0.0492362 6.44616 0.13511C6.36269 0.220984 6.31545 0.337265 6.31476 0.458707V3.1708C5.72818 3.40368 5.18018 3.7285 4.69019 4.1338L2.40847 2.77916C2.30567 2.7188 2.18383 2.70264 2.06953 2.7343C1.95522 2.76596 1.85777 2.84283 1.79832 2.94813L0.061568 6.0465C0.0320582 6.09862 0.012752 6.15622 0.00490711 6.21599C-0.0029378 6.27577 0.000840055 6.33655 0.0158573 6.39485C0.0308745 6.45316 0.0569212 6.50783 0.0925086 6.55577C0.128096 6.6037 0.172548 6.64399 0.223274 6.67424L2.51021 8.03157C2.45816 8.34892 2.43111 8.67011 2.42935 8.99194C2.43099 9.31468 2.45804 9.63676 2.51021 9.95501L0.223274 11.3123C0.17229 11.3423 0.127529 11.3824 0.0917446 11.4303C0.0559599 11.4783 0.0298811 11.5331 0.0148387 11.5915C-0.000203713 11.6499 -0.00388691 11.7107 0.00414314 11.7706C0.0121732 11.8304 0.0317093 11.888 0.061568 11.9401ZM8.49996 7.08462C8.74227 7.08492 8.98214 7.1344 9.20586 7.23014C9.42959 7.32588 9.63277 7.46602 9.8038 7.64261C9.97581 7.81841 10.1125 8.02738 10.206 8.25751C10.2995 8.48765 10.348 8.73446 10.3488 8.98389C10.3461 9.48741 10.1502 9.96946 9.8038 10.3252C9.63277 10.5018 9.42959 10.642 9.20586 10.7377C8.98214 10.8334 8.74227 10.8829 8.49996 10.8832C8.25765 10.8829 8.01778 10.8334 7.79405 10.7377C7.57033 10.642 7.36715 10.5018 7.19612 10.3252C6.84969 9.96946 6.65386 9.48741 6.65116 8.98389C6.65194 8.73446 6.70038 8.48765 6.7939 8.25751C6.88741 8.02738 7.02411 7.81841 7.19612 7.64261C7.54238 7.28794 8.01133 7.08917 8.49996 7.08999V7.08462Z" fill="#896CFE"/>
</svg>
