<svg width="18" height="10" viewBox="0 0 18 10" fill="none" xmlns="http://www.w3.org/2000/svg">
<path d="M1.5 1.96175C1.5 1.65999 1.81185 1.40234 2.21716 1.40234H12.7828C13.1882 1.40234 13.5 1.65999 13.5 1.96175V7.15706C13.5 7.45882 13.1882 7.71646 12.7828 7.71646H2.21716C1.81185 7.71646 1.5 7.45882 1.5 7.15706L1.5 1.96175Z" fill="white"/>
<path fill-rule="evenodd" clip-rule="evenodd" d="M0.5 1.21924C0.5 0.831261 0.901889 0.5 1.42422 0.5L15.0404 0.5C15.5628 0.5 15.9647 0.831261 15.9647 1.21924C15.9647 1.59997 16.2249 1.93137 16.5948 2.0216L16.9523 2.10879C17.2103 2.18532 17.5 2.36778 17.5 2.65558V6.40335C17.5 6.69114 17.2103 6.8736 16.9523 6.95014L16.9313 6.95637L16.6935 7.0052C16.2692 7.09233 15.9647 7.46577 15.9647 7.89891C15.9647 8.28689 15.5628 8.61816 15.0404 8.61816H1.42422C0.901887 8.61816 0.5 8.28689 0.5 7.89891L0.5 1.21924Z" stroke="white"/>
</svg>
