<svg width="11" height="10" viewBox="0 0 11 10" fill="none" xmlns="http://www.w3.org/2000/svg">
<path d="M5.14687 9.95327C6.51178 9.95285 7.82066 9.42832 8.78579 8.49497C9.75093 7.56161 10.2933 6.29583 10.2937 4.97586C10.2933 3.65604 9.75085 2.3904 8.78567 1.4573C7.82049 0.524196 6.51163 -6.66755e-08 5.14687 0C3.78212 -6.66755e-08 2.47322 0.524196 1.50804 1.4573C0.542855 2.3904 0.000433806 3.65604 0 4.97586C0.000433647 6.29583 0.542822 7.56161 1.50796 8.49497C2.47309 9.42832 3.78197 9.95285 5.14687 9.95327ZM2.91698 6.25262L4.81967 4.8287V2.8273C4.81967 2.74338 4.85413 2.66288 4.91549 2.60354C4.97686 2.5442 5.0601 2.51088 5.14687 2.51088C5.23365 2.51088 5.31685 2.5442 5.37822 2.60354C5.43958 2.66288 5.47408 2.74338 5.47408 2.8273V4.98374C5.47408 4.98374 5.47408 4.99642 5.47408 5.00275C5.47408 5.00908 5.47408 5.02489 5.47408 5.03597C5.47211 5.04565 5.46937 5.05516 5.46589 5.06443C5.46683 5.07443 5.46683 5.08452 5.46589 5.09452L5.45279 5.12299L5.43809 5.14988L5.42008 5.17521C5.41386 5.18334 5.40674 5.19075 5.39883 5.19735C5.39149 5.20603 5.38324 5.21397 5.37426 5.22106L5.36116 5.23373L3.33089 6.76052C3.26248 6.81173 3.17589 6.83463 3.09004 6.82426C3.0042 6.81388 2.92607 6.77105 2.8728 6.70513C2.84432 6.6729 2.82284 6.63547 2.80961 6.59505C2.79639 6.55463 2.79171 6.51203 2.79583 6.46982C2.79995 6.42761 2.8128 6.38665 2.83362 6.34934C2.85443 6.31203 2.88276 6.27913 2.91698 6.25262Z" fill="#896CFE"/>
</svg>
